<mxfile host="65bd71144e">
    <diagram id="dzH8AbBxTpVTIcs8sDzF" name="Page-1">
        <mxGraphModel dx="2221" dy="636" grid="1" gridSize="10" guides="1" tooltips="0" connect="1" arrows="1" fold="1" page="1" pageScale="1" pageWidth="1654" pageHeight="1169" math="0" shadow="0">
            <root>
                <mxCell id="0"/>
                <mxCell id="1" parent="0"/>
                <mxCell id="98" value="Task.TaskEventArgs" style="swimlane;fontStyle=1;align=center;verticalAlign=top;childLayout=stackLayout;horizontal=1;startSize=26;horizontalStack=0;resizeParent=1;resizeParentMax=0;resizeLast=0;collapsible=1;marginBottom=0;" parent="1" vertex="1">
                    <mxGeometry x="-1040" y="200" width="160" height="80" as="geometry">
                        <mxRectangle x="-1040" y="200" width="160" height="30" as="alternateBounds"/>
                    </mxGeometry>
                </mxCell>
                <mxCell id="99" value="+ strContent: String&#10;+ s32Progress: Int32&#10;+ strLog: String" style="text;strokeColor=none;fillColor=none;align=left;verticalAlign=top;spacingLeft=4;spacingRight=4;overflow=hidden;rotatable=0;points=[[0,0.5],[1,0.5]];portConstraint=eastwest;" parent="98" vertex="1">
                    <mxGeometry y="26" width="160" height="54" as="geometry"/>
                </mxCell>
                <mxCell id="102" value="Classname" style="swimlane;fontStyle=1;align=center;verticalAlign=top;childLayout=stackLayout;horizontal=1;startSize=26;horizontalStack=0;resizeParent=1;resizeParentMax=0;resizeLast=0;collapsible=1;marginBottom=0;" parent="1" vertex="1">
                    <mxGeometry x="-570" y="86" width="160" height="130" as="geometry"/>
                </mxCell>
                <mxCell id="103" value="+ field: type" style="text;strokeColor=none;fillColor=none;align=left;verticalAlign=top;spacingLeft=4;spacingRight=4;overflow=hidden;rotatable=0;points=[[0,0.5],[1,0.5]];portConstraint=eastwest;" parent="102" vertex="1">
                    <mxGeometry y="26" width="160" height="26" as="geometry"/>
                </mxCell>
                <mxCell id="104" value="" style="line;strokeWidth=1;fillColor=none;align=left;verticalAlign=middle;spacingTop=-1;spacingLeft=3;spacingRight=3;rotatable=0;labelPosition=right;points=[];portConstraint=eastwest;strokeColor=inherit;" parent="102" vertex="1">
                    <mxGeometry y="52" width="160" height="8" as="geometry"/>
                </mxCell>
                <mxCell id="105" value="+ method(type): type&#10;+ method(type): type&#10;+ method(type): type&#10;+ method(type): type" style="text;strokeColor=none;fillColor=none;align=left;verticalAlign=top;spacingLeft=4;spacingRight=4;overflow=hidden;rotatable=0;points=[[0,0.5],[1,0.5]];portConstraint=eastwest;" parent="102" vertex="1">
                    <mxGeometry y="60" width="160" height="70" as="geometry"/>
                </mxCell>
                <mxCell id="106" value="&amp;lt;&amp;lt;enumeration&amp;gt;&amp;gt;&lt;br&gt;&lt;div style=&quot;color: rgb(204, 204, 204); background-color: rgb(31, 31, 31); font-family: Consolas, &amp;quot;Courier New&amp;quot;, monospace; font-size: 14px; line-height: 19px;&quot;&gt;&lt;span style=&quot;color: #4ec9b0;&quot;&gt;Task.enuStatus&lt;/span&gt;&lt;/div&gt;" style="swimlane;fontStyle=0;align=center;verticalAlign=top;childLayout=stackLayout;horizontal=1;startSize=40;horizontalStack=0;resizeParent=1;resizeParentMax=0;resizeLast=0;collapsible=0;marginBottom=0;html=1;" parent="1" vertex="1">
                    <mxGeometry x="-1040" y="40" width="140" height="110" as="geometry"/>
                </mxCell>
                <mxCell id="107" value="&lt;div style=&quot;color: rgb(204, 204, 204); background-color: rgb(31, 31, 31); font-family: Consolas, &amp;quot;Courier New&amp;quot;, monospace; font-size: 14px; line-height: 19px;&quot;&gt;&lt;span style=&quot;color: #4fc1ff;&quot;&gt;None&lt;/span&gt;&lt;/div&gt;&lt;div style=&quot;color: rgb(204, 204, 204); background-color: rgb(31, 31, 31); font-family: Consolas, &amp;quot;Courier New&amp;quot;, monospace; font-size: 14px; line-height: 19px;&quot;&gt;&lt;div style=&quot;line-height: 19px;&quot;&gt;&lt;span style=&quot;color: #4fc1ff;&quot;&gt;Busy&lt;/span&gt;&lt;/div&gt;&lt;div style=&quot;line-height: 19px;&quot;&gt;&lt;div style=&quot;line-height: 19px;&quot;&gt;&lt;span style=&quot;color: #4fc1ff;&quot;&gt;Terminated&lt;/span&gt;&lt;/div&gt;&lt;/div&gt;&lt;/div&gt;" style="text;html=1;strokeColor=none;fillColor=none;align=left;verticalAlign=middle;spacingLeft=4;spacingRight=4;overflow=hidden;rotatable=0;points=[[0,0.5],[1,0.5]];portConstraint=eastwest;" parent="106" vertex="1">
                    <mxGeometry y="40" width="140" height="70" as="geometry"/>
                </mxCell>
                <mxCell id="108" value="Task.Worker {abstract}" style="swimlane;fontStyle=1;align=center;verticalAlign=top;childLayout=stackLayout;horizontal=1;startSize=26;horizontalStack=0;resizeParent=1;resizeParentMax=0;resizeLast=0;collapsible=1;marginBottom=0;" parent="1" vertex="1">
                    <mxGeometry x="-1040" y="330" width="160" height="86" as="geometry"/>
                </mxCell>
                <mxCell id="109" value="+ field: type" style="text;strokeColor=none;fillColor=none;align=left;verticalAlign=top;spacingLeft=4;spacingRight=4;overflow=hidden;rotatable=0;points=[[0,0.5],[1,0.5]];portConstraint=eastwest;" parent="108" vertex="1">
                    <mxGeometry y="26" width="160" height="26" as="geometry"/>
                </mxCell>
                <mxCell id="110" value="" style="line;strokeWidth=1;fillColor=none;align=left;verticalAlign=middle;spacingTop=-1;spacingLeft=3;spacingRight=3;rotatable=0;labelPosition=right;points=[];portConstraint=eastwest;strokeColor=inherit;" parent="108" vertex="1">
                    <mxGeometry y="52" width="160" height="8" as="geometry"/>
                </mxCell>
                <mxCell id="111" value="+ method(type): type" style="text;strokeColor=none;fillColor=none;align=left;verticalAlign=top;spacingLeft=4;spacingRight=4;overflow=hidden;rotatable=0;points=[[0,0.5],[1,0.5]];portConstraint=eastwest;" parent="108" vertex="1">
                    <mxGeometry y="60" width="160" height="26" as="geometry"/>
                </mxCell>
                <mxCell id="112" value="System.EventArgs" style="swimlane;fontStyle=1;align=center;verticalAlign=top;childLayout=stackLayout;horizontal=1;startSize=26;horizontalStack=0;resizeParent=1;resizeParentMax=0;resizeLast=0;collapsible=1;marginBottom=0;" parent="1" vertex="1">
                    <mxGeometry x="-840" y="40" width="160" height="86" as="geometry">
                        <mxRectangle x="-840" y="40" width="150" height="30" as="alternateBounds"/>
                    </mxGeometry>
                </mxCell>
                <mxCell id="113" value="+ field: type" style="text;strokeColor=none;fillColor=none;align=left;verticalAlign=top;spacingLeft=4;spacingRight=4;overflow=hidden;rotatable=0;points=[[0,0.5],[1,0.5]];portConstraint=eastwest;" parent="112" vertex="1">
                    <mxGeometry y="26" width="160" height="26" as="geometry"/>
                </mxCell>
                <mxCell id="114" value="" style="line;strokeWidth=1;fillColor=none;align=left;verticalAlign=middle;spacingTop=-1;spacingLeft=3;spacingRight=3;rotatable=0;labelPosition=right;points=[];portConstraint=eastwest;strokeColor=inherit;" parent="112" vertex="1">
                    <mxGeometry y="52" width="160" height="8" as="geometry"/>
                </mxCell>
                <mxCell id="115" value="+ method(type): type" style="text;strokeColor=none;fillColor=none;align=left;verticalAlign=top;spacingLeft=4;spacingRight=4;overflow=hidden;rotatable=0;points=[[0,0.5],[1,0.5]];portConstraint=eastwest;" parent="112" vertex="1">
                    <mxGeometry y="60" width="160" height="26" as="geometry"/>
                </mxCell>
            </root>
        </mxGraphModel>
    </diagram>
    <diagram id="NWyQbFcIYWtOVBY_tDq2" name="Page-2">
        <mxGraphModel dx="567" dy="535" grid="1" gridSize="10" guides="1" tooltips="1" connect="1" arrows="1" fold="1" page="1" pageScale="1" pageWidth="1654" pageHeight="1169" math="0" shadow="0">
            <root>
                <mxCell id="0"/>
                <mxCell id="1" parent="0"/>
            </root>
        </mxGraphModel>
    </diagram>
</mxfile>